<svg xmlns="http://www.w3.org/2000/svg" viewBox="0 0 79.375 79.375" height="300" width="300"><g transform="translate(0 -217.625)"><circle cx="39.688" cy="257.312" r="39.126" fill="none" stroke="#000" stroke-width=".529"/><circle cx="39.688" cy="257.312" r="36.742" fill="none" stroke="#000" stroke-width=".529"/><circle cx="39.688" cy="257.312" r="19.516" fill="none" stroke="#000" stroke-width=".529"/><path d="M20.637 254.667H2.91M37.042 237.998V220.8M42.333 220.8v17.198M37.042 276.892v17.198M42.333 276.892v17.198M20.373 259.958H3.175M59.267 254.667H76.2M59.267 259.958h17.198" fill="none" stroke="#000" stroke-width=".529"/><path d="M3.457 253.57c.036-.456.172-1.455.3-2.222a36.469 36.469 0 0124.875-28.743c2.193-.704 5.391-1.37 7.314-1.525l.828-.067-.024 8.341-.024 8.342-1.106.223c-7.624 1.537-13.787 7.72-15.337 15.39l-.21 1.04-8.342.024-8.34.024z" fill="green" stroke="#000" stroke-width=".18891012"/><path d="M59.22 253.947c-.126-.887-.638-2.733-1.055-3.801-2.439-6.249-7.963-10.93-14.432-12.23l-1.054-.212-.025-8.332-.024-8.333h.312c1.081 0 4.286.574 6.324 1.133 3.944 1.082 7.155 2.551 10.658 4.878a36.31 36.31 0 0115.167 21.715c.42 1.755.897 4.654.897 5.462 0 .16-.393.169-8.352.169h-8.352z" fill="red" stroke="#000" stroke-width=".18891012"/><path d="M42.631 285.259v-8.352l.45-.065c.718-.104 2.18-.491 3.224-.855 6.48-2.255 11.402-7.906 12.786-14.678l.216-1.055h8.34c8.144 0 8.34.005 8.34.18 0 .44-.32 2.639-.58 3.974-.952 4.897-3.1 9.895-5.99 13.944-1.784 2.497-4.661 5.56-6.895 7.337-4.681 3.725-10.04 6.225-15.737 7.343-1.298.255-3.528.579-3.985.579-.16 0-.169-.407-.169-8.352z" fill="#00f" stroke="#000" stroke-width=".18891012"/><path d="M35.733 293.544c-1.129-.123-3.572-.573-4.85-.893-14.105-3.53-24.703-15.007-27.13-29.379-.126-.75-.26-1.736-.296-2.191l-.067-.828 8.341.025 8.34.024.222 1.073c.439 2.13 1.41 4.546 2.591 6.451 2.789 4.496 7.661 7.883 12.785 8.887l1.104.216V293.61l-.355-.014a12.565 12.565 0 01-.685-.052z" fill="#ff0" stroke="#000" stroke-width=".18891012"/><path d="M3.275 258.46a24.794 24.794 0 010-2.362l.068-1.135h16.664l-.068.685c-.088.878-.088 2.476 0 3.354l.068.685H3.343zM59.41 259.38c.036-.168.067-1.093.067-2.055 0-.961-.03-1.886-.068-2.055l-.067-.307h16.74v4.724h-16.74zM37.34 285.335v-8.37l.307.07c.395.09 3.707.089 4.11-.001l.307-.069v16.74H37.34zM37.34 229.3v-8.332l1.18-.068c.65-.038 1.714-.038 2.363 0l1.181.068v16.662l-.685-.068a20.925 20.925 0 00-1.677-.069c-.546 0-1.3.031-1.677.069l-.685.068z" stroke="#000" stroke-width=".18891012"/><path d="M37.431 296.067c-8.135-.508-15.647-3.419-22.156-8.585-1.506-1.195-4.582-4.284-5.849-5.872-9.965-12.493-11.335-29.607-3.48-43.467 4.163-7.345 10.75-13.22 18.543-16.54a38.864 38.864 0 0124.804-1.889 38.78 38.78 0 0125.03 20.136c4.488 8.937 5.395 19.052 2.558 28.531-3.441 11.498-11.856 20.647-23.064 25.076-5.026 1.986-11.042 2.944-16.386 2.61zm4.785-1.797c5.756-.457 10.953-2.02 15.76-4.737 5.71-3.23 10.704-8.224 13.934-13.935 5.46-9.654 6.321-21.33 2.334-31.638-2.586-6.683-7.162-12.598-12.963-16.752a37.04 37.04 0 00-16.24-6.547c-3.963-.581-8.615-.474-12.426.287-5.164 1.03-10.05 3.112-14.269 6.08-2.373 1.67-5.537 4.607-7.293 6.768-4.533 5.578-7.192 11.835-8.174 19.23-.236 1.784-.237 6.754 0 8.599 1.502 11.711 7.901 21.544 17.95 27.58 4.407 2.647 10.2 4.53 15.282 4.968.65.056 1.33.115 1.512.132.788.075 3.474.054 4.593-.035z" stroke="#000" stroke-width=".18891012"/><circle cx="64" cy="64" r="64" fill="#69b0ee" transform="matrix(.13436 0 0 .13436 30.857 248.727)" data-name="Circle Grid"/><g transform="matrix(.13436 0 0 .13436 30.857 248.727)"><circle cx="64" cy="64" r="39.605" fill="#eeefee"/><g fill="#ef5261"><path d="M64 88.6a23.7 23.7 0 01-11.589-44.379l3.428 6.1a16.71 16.71 0 1016.318 0l3.416-6.11A23.7 23.7 0 0164 88.6z"/><path d="M60.5 35.398h7v26.5h-7z"/></g></g><text style="line-height:1" x="39.506" y="247.838" font-weight="400" font-size="5.644" font-family="sans-serif" letter-spacing="0" word-spacing="0" stroke-width=".265"><tspan x="39.506" y="247.838" style="text-align:center" font-size="11.289" text-anchor="middle" fill="green">0</tspan></text><circle cx="31.33" cy="269.605" r="1.984" fill="green" stroke="#000" stroke-width=".529"/><circle cx="39.82" cy="269.615" r="1.984" fill="#ff0" stroke="#000" stroke-width=".529"/><circle cx="48.342" cy="269.602" r="1.984" fill="red" stroke="#000" stroke-width=".529"/></g></svg>